<?xml version="1.0" encoding="utf-8"?>
<!-- Generator: Adobe Illustrator 16.0.3, SVG Export Plug-In . SVG Version: 6.00 Build 0)  -->
<!DOCTYPE svg PUBLIC "-//W3C//DTD SVG 1.1//EN" "http://www.w3.org/Graphics/SVG/1.1/DTD/svg11.dtd">
<svg version="1.1" id="Layer_1" xmlns="http://www.w3.org/2000/svg" xmlns:xlink="http://www.w3.org/1999/xlink" x="0px" y="0px"
	 width="198.425px" height="107.379px" viewBox="0 0 198.425 107.379" enable-background="new 0 0 198.425 107.379"
	 xml:space="preserve">
<path style="fill:#ffffff;" d="M98.834,107.297c-23.231,0-46.464,0.009-69.693-0.009c-3.319-0.005-6.651,0.036-9.946-0.271
	c-8.408-0.774-14.858-4.792-17.775-12.845c-3.018-8.347-1.216-15.988,5.354-22.247c1.332-1.272,2.723-2.485,4.129-3.676
	C34.56,48.258,58.222,28.27,81.885,8.287c1.127-0.95,2.26-1.902,3.438-2.785c9.421-7.062,18.274-7.559,27.239-0.132
	c26.125,21.633,52.002,43.575,77.818,65.582c6.989,5.96,10.069,13.575,6.634,22.778c-3.577,9.577-11.132,13.486-20.745,13.554
	c-25.811,0.173-51.623,0.059-77.436,0.059C98.834,107.329,98.834,107.317,98.834,107.297z"/>
</svg>
