<?xml version="1.0" encoding="utf-8"?>
<!-- Generator: Adobe Illustrator 16.0.3, SVG Export Plug-In . SVG Version: 6.00 Build 0)  -->
<!DOCTYPE svg PUBLIC "-//W3C//DTD SVG 1.1//EN" "http://www.w3.org/Graphics/SVG/1.1/DTD/svg11.dtd">
<svg version="1.1" id="Layer_1" xmlns="http://www.w3.org/2000/svg" xmlns:xlink="http://www.w3.org/1999/xlink" x="0px" y="0px"
	 width="198.426px" height="163.022px" viewBox="0 0 198.426 163.022" enable-background="new 0 0 198.426 163.022"
	 xml:space="preserve">
<path  style="fill:#ffffff;" d="M99.007,20.428c10.193-9.65,20.91-16.899,34.414-19.457c28.17-5.345,56.512,11.896,63.34,38.941
	c4.049,16.038,0.742,30.912-10.203,42.83c-22.635,24.659-45.869,48.784-69.465,72.534c-10.941,11.01-26.145,10.071-37.584-1.469
	c-16.004-16.14-31.545-32.745-47.289-49.147c-5.436-5.667-10.959-11.258-16.315-17C-1.309,69.206-4.712,47.24,6.488,27.442
	C17.721,7.59,41.946-3.253,64.784,1.01C78.267,3.528,89.187,10.514,99.007,20.428z"/>
</svg>
