<?xml version="1.0" encoding="utf-8"?>
<!-- Generator: Adobe Illustrator 16.0.3, SVG Export Plug-In . SVG Version: 6.00 Build 0)  -->
<!DOCTYPE svg PUBLIC "-//W3C//DTD SVG 1.1//EN" "http://www.w3.org/Graphics/SVG/1.1/DTD/svg11.dtd">
<svg version="1.1" id="Layer_1" xmlns="http://www.w3.org/2000/svg" xmlns:xlink="http://www.w3.org/1999/xlink" x="0px" y="0px"
	 width="566.836px" height="566.93px" viewBox="0 0 566.836 566.93" enable-background="new 0 0 566.836 566.93"
	 xml:space="preserve">
<path  style="fill:#ffffff;" d="M283.471,0C126.711-0.104-0.14,127,0,284.032C0.14,440.357,127.031,566.93,283.609,566.93
	c156.005,0,283.354-127.48,283.228-283.523C566.706,127.164,439.667,0.104,283.471,0z M482.932,400.509l-31.254,41.567
	c-91.047,100.625-253.122,95.664-337.185-0.133l-30.793-41.379c-44.352-65.875-54.076-190.79,33.758-280.046
	c85.116-86.497,221.343-93.267,314.327-15.405C526.762,184.646,536.292,314.008,482.932,400.509z"/>
</svg>
