<?xml version="1.0" encoding="utf-8"?>
<!-- Generator: Adobe Illustrator 16.0.3, SVG Export Plug-In . SVG Version: 6.00 Build 0)  -->
<!DOCTYPE svg PUBLIC "-//W3C//DTD SVG 1.1//EN" "http://www.w3.org/Graphics/SVG/1.1/DTD/svg11.dtd">
<svg version="1.1" id="Layer_1" xmlns="http://www.w3.org/2000/svg" xmlns:xlink="http://www.w3.org/1999/xlink" x="0px" y="0px"
	 width="403.707px" height="195.836px" viewBox="0 0 403.707 195.836" enable-background="new 0 0 403.707 195.836"
	 xml:space="preserve">
<path d="M372.102,195.836c-2.224-1.966-3.877-3.548-5.652-4.973c-52.057-41.771-104.122-83.531-156.189-125.285
	c-1.289-1.032-2.607-2.029-3.922-3.026c-2.988-2.26-6.021-2.496-9.087-0.157c-1.575,1.202-3.16,2.396-4.706,3.636
	C140.686,107.519,88.83,149.01,36.99,190.521c-2.035,1.627-3.906,3.45-5.852,5.181L0,153.86c2.607-1.933,5.262-3.782,7.777-5.79
	c47.49-37.978,94.965-75.976,142.443-113.965c11.611-9.294,23.225-18.585,34.836-27.873c7.541-6.037,16.04-7.98,25.077-4.535
	c4.204,1.605,8.063,4.482,11.642,7.33c57.885,46.146,115.693,92.383,173.539,138.574c2.699,2.156,5.553,4.107,8.393,6.202
	L372.102,195.836z"/>
</svg>
